<svg xmlns="http://www.w3.org/2000/svg" x="0px" y="0px" width="100" height="100" viewBox="0 0 40 40">
<path fill="#e1ebf2" d="M22.159,38.5c1.415-0.996,2.341-2.642,2.341-4.5V5.5h13V34c0,2.481-2.019,4.5-4.5,4.5H22.159z"></path><path fill="#788b9c" d="M37,6v28c0,2.206-1.794,4-4,4h-9.532C24.42,36.938,25,35.535,25,34V6H37 M38,5H24v29 c0,2.761-2.239,5-5,5h14c2.761,0,5-2.239,5-5V5L38,5z"></path><path fill="#fff" d="M7,38.5c-2.481,0-4.5-2.019-4.5-4.5V1.5h26V34c0,2.312,1.753,4.223,4,4.472V38.5H7z"></path><path fill="#788b9c" d="M28,2v32c0,1.634,0.788,3.087,2.003,4H7c-2.206,0-4-1.794-4-4V2H28 M29,1H2v33c0,2.761,2.239,5,5,5 h26v-1c-2.209,0-4-1.791-4-4V1L29,1z"></path><path fill="#788b9c" d="M7 6H24V9H7zM7 12H14V13H7zM7 15H14V16H7zM7 18H14V19H7zM7 21H14V22H7zM7 24H14V25H7zM7 27H14V28H7zM7 30H14V31H7zM7 33H14V34H7zM29 11H34V12H29zM29 14H34V15H29zM29 17H34V18H29zM29 20H34V21H29zM29 23H34V24H29zM29 26H34V27H29zM29 29H34V30H29zM29 32H34V33H29zM17 12H24V13H17zM17 15H24V16H17zM17 18H24V19H17zM17 21H24V22H17zM17 24H24V25H17zM17 27H24V28H17zM17 30H24V31H17zM17 33H24V34H17z"></path>
</svg>